<?xml version="1.0" encoding="utf-8"?>
<!-- Generator: Adobe Illustrator 27.5.0, SVG Export Plug-In . SVG Version: 6.00 Build 0)  -->
<svg version="1.1" id="Capa_1" xmlns="http://www.w3.org/2000/svg" xmlns:xlink="http://www.w3.org/1999/xlink" x="0px" y="0px"
	 viewBox="0 0 2122 2122" style="enable-background:new 0 0 2122 2122;" xml:space="preserve">
<path style="fill:#92BAE4;" d="M1067.998,406.222c3.339,0.037,6.682,0.051,10.009,0.138c1.888,0.049,3.762,0.15,5.647,0.215
	c3.871,0.134,7.743,0.263,11.598,0.464c2.228,0.116,4.441,0.284,6.664,0.422c3.494,0.217,6.992,0.427,10.472,0.698
	c2.347,0.184,4.68,0.415,7.02,0.624c3.337,0.297,6.677,0.588,10.001,0.934c2.387,0.249,4.761,0.542,7.141,0.816
	c3.261,0.377,6.523,0.751,9.77,1.175c2.382,0.312,4.753,0.66,7.126,0.998c3.229,0.458,6.456,0.919,9.669,1.424
	c2.352,0.37,4.694,0.771,7.039,1.166c3.222,0.543,6.44,1.093,9.644,1.683c2.301,0.423,4.592,0.872,6.883,1.319
	c3.231,0.631,6.458,1.274,9.673,1.952c2.242,0.473,4.475,0.965,6.709,1.46c3.252,0.721,6.497,1.462,9.732,2.232
	c2.159,0.514,4.314,1.042,6.465,1.578c3.301,0.821,6.592,1.667,9.873,2.539c2.06,0.547,4.116,1.102,6.168,1.669
	c3.359,0.928,6.705,1.885,10.042,2.865c1.948,0.572,3.893,1.145,5.832,1.735c3.444,1.046,6.872,2.128,10.292,3.229
	c1.808,0.582,3.616,1.161,5.417,1.759c3.555,1.179,7.09,2.399,10.617,3.637c1.641,0.576,3.284,1.144,4.917,1.732
	c3.724,1.341,7.423,2.728,11.114,4.133c1.41,0.537,2.826,1.062,4.231,1.608c3.977,1.546,7.927,3.144,11.865,4.766
	c1.098,0.452,2.203,0.889,3.3,1.348c4.382,1.832,8.736,3.721,13.069,5.645c0.631,0.28,1.269,0.549,1.9,0.831
	c40.628,18.195,79.052,40.417,114.787,66.147c0.009,0.007,0.017,0.013,0.025,0.018c4.426,3.188,8.809,6.432,13.152,9.727
	c0.148,0.112,0.292,0.225,0.439,0.337c4.208,3.198,8.375,6.446,12.503,9.742c0.224,0.18,0.448,0.362,0.672,0.542
	c4.054,3.246,8.067,6.539,12.042,9.878c0.253,0.214,0.505,0.429,0.76,0.643c3.944,3.326,7.849,6.697,11.713,10.113
	c0.253,0.224,0.505,0.449,0.757,0.673c3.871,3.432,7.699,6.909,11.487,10.431c0.221,0.205,0.441,0.41,0.661,0.616
	c3.817,3.56,7.592,7.165,11.324,10.814c0.178,0.175,0.357,0.348,0.534,0.523c3.794,3.718,7.542,7.481,11.244,11.289
	c0.099,0.101,0.196,0.201,0.293,0.301c114.029,117.454,184.396,277.514,184.877,454.032h193.997
	c0.001,0.591,0.022,1.177,0.022,1.769c-0.026-468.606-379.915-848.479-848.527-848.479c2.455,0,4.89,0.072,7.339,0.093V406.222z"/>
<path style="fill:#65ACD9;" d="M1715.168,1058.842c0.001,0.608,0.023,1.21,0.023,1.818c0,361.488-293.043,654.531-654.531,654.531
	c-2.453,0-4.89-0.066-7.337-0.093v193.996c2.448,0.021,4.884,0.093,7.337,0.093c468.629,0,848.529-379.899,848.529-848.528l0,0
	c0-0.016-0.002-0.033-0.002-0.049c0-0.591-0.02-1.177-0.022-1.769H1715.168z"/>
<path style="fill:#65ACD9;" d="M406.152,1062.478c-0.001-0.607-0.023-1.21-0.023-1.818c0-361.487,293.043-654.531,654.53-654.531
	c2.453,0,4.892,0.066,7.339,0.093V212.225c-2.449-0.02-4.884-0.093-7.339-0.093c-468.629,0-848.527,379.899-848.527,848.528
	c0,0.608,0.022,1.211,0.023,1.818H406.152z"/>
<path style="fill:#455EA8;" d="M1715.191,1060.66c0-0.608-0.022-1.21-0.023-1.818c-0.481-176.518-70.848-336.578-184.877-454.032
	c3.798,3.911,7.548,7.869,11.247,11.873c-105.019-71.756-231.993-113.745-368.784-113.745
	c-361.488,0-654.531,293.043-654.531,654.531c0,171.356,65.878,327.303,173.651,443.976
	c103.136,70.47,227.456,112.179,361.448,113.654c2.447,0.026,4.884,0.093,7.337,0.093
	C1422.148,1715.191,1715.191,1422.148,1715.191,1060.66z"/>
<path style="fill:#334C99;" d="M1172.755,502.938c136.791,0,263.765,41.989,368.784,113.745c-3.699-4.005-7.449-7.962-11.247-11.873
	c-0.097-0.1-0.195-0.201-0.293-0.301c-3.701-3.808-7.451-7.571-11.244-11.289c-0.178-0.175-0.357-0.348-0.534-0.523
	c-3.732-3.649-7.507-7.254-11.324-10.814c-0.22-0.206-0.441-0.411-0.661-0.616c-3.787-3.522-7.617-6.999-11.487-10.431
	c-0.252-0.224-0.504-0.449-0.757-0.673c-3.864-3.417-7.769-6.787-11.713-10.113c-0.254-0.214-0.507-0.429-0.76-0.643
	c-3.973-3.34-7.988-6.632-12.042-9.878c-0.224-0.18-0.448-0.362-0.672-0.542c-4.126-3.297-8.295-6.544-12.503-9.742
	c-0.146-0.112-0.291-0.225-0.439-0.337c-4.342-3.295-8.726-6.538-13.152-9.727c-0.008-0.006-0.017-0.012-0.025-0.018
	c-35.731-25.733-74.163-47.948-114.787-66.147c-0.631-0.282-1.269-0.551-1.9-0.831c-4.333-1.925-8.687-3.812-13.069-5.645
	c-1.097-0.458-2.202-0.896-3.3-1.348c-3.938-1.622-7.889-3.219-11.865-4.766c-1.405-0.547-2.821-1.071-4.231-1.608
	c-3.691-1.406-7.391-2.792-11.114-4.133c-1.633-0.589-3.276-1.156-4.917-1.732c-3.527-1.238-7.063-2.458-10.617-3.637
	c-1.801-0.597-3.609-1.176-5.417-1.759c-3.419-1.102-6.849-2.183-10.292-3.229c-1.939-0.589-3.885-1.163-5.832-1.735
	c-3.337-0.98-6.683-1.937-10.042-2.865c-2.052-0.567-4.109-1.122-6.168-1.669c-3.281-0.872-6.573-1.717-9.873-2.539
	c-2.151-0.536-4.306-1.064-6.465-1.578c-3.235-0.77-6.48-1.51-9.732-2.232c-2.234-0.495-4.467-0.988-6.709-1.46
	c-3.213-0.678-6.441-1.322-9.673-1.952c-2.291-0.447-4.582-0.896-6.883-1.319c-3.204-0.59-6.422-1.14-9.644-1.683
	c-2.345-0.395-4.687-0.796-7.039-1.166c-3.213-0.505-6.44-0.966-9.669-1.424c-2.374-0.337-4.744-0.686-7.126-0.998
	c-3.247-0.425-6.509-0.798-9.77-1.175c-2.38-0.274-4.754-0.567-7.141-0.816c-3.324-0.347-6.664-0.638-10.001-0.934
	c-2.34-0.209-4.673-0.44-7.02-0.624c-3.48-0.272-6.977-0.48-10.472-0.698c-2.223-0.138-4.436-0.306-6.664-0.422
	c-3.855-0.201-7.727-0.33-11.598-0.464c-1.884-0.065-3.759-0.165-5.647-0.215c-5.765-0.15-11.547-0.231-17.347-0.231
	c-361.487,0-654.53,293.044-654.53,654.531c0,6.433,0.118,12.839,0.302,19.227c0.058,2.003,0.152,3.996,0.228,5.993
	c0.169,4.451,0.373,8.892,0.63,13.32c0.129,2.229,0.271,4.454,0.424,6.677c0.298,4.379,0.646,8.743,1.031,13.097
	c0.178,2.015,0.34,4.032,0.536,6.041c0.566,5.792,1.198,11.564,1.913,17.31c0.058,0.471,0.102,0.946,0.162,1.417
	c0.792,6.243,1.688,12.453,2.654,18.64c0.279,1.787,0.592,3.562,0.886,5.344c0.73,4.443,1.497,8.875,2.318,13.288
	c0.382,2.057,0.778,4.108,1.179,6.158c0.844,4.305,1.733,8.595,2.661,12.869c0.403,1.862,0.796,3.727,1.214,5.583
	c1.238,5.469,2.537,10.914,3.91,16.331c0.139,0.549,0.263,1.103,0.403,1.651c1.556,6.066,3.205,12.092,4.928,18.089
	c0.408,1.419,0.844,2.825,1.261,4.24c1.341,4.55,2.721,9.082,4.158,13.589c0.566,1.779,1.147,3.551,1.727,5.323
	c1.413,4.305,2.871,8.59,4.37,12.855c0.564,1.606,1.119,3.215,1.695,4.815c1.906,5.29,3.871,10.551,5.909,15.776
	c0.175,0.451,0.34,0.907,0.515,1.358c2.306,5.873,4.699,11.702,7.168,17.491c0.398,0.934,0.817,1.856,1.219,2.788
	c2.042,4.728,4.135,9.429,6.285,14.099c0.659,1.431,1.33,2.855,1.999,4.281c2.031,4.326,4.105,8.624,6.225,12.897
	c0.646,1.301,1.284,2.605,1.938,3.901c2.598,5.148,5.252,10.262,7.98,15.33c0.148,0.275,0.289,0.554,0.438,0.828
	c3.052,5.65,6.185,11.248,9.397,16.796c0.2,0.344,0.408,0.683,0.608,1.027c2.88,4.954,5.828,9.862,8.833,14.733
	c0.658,1.064,1.323,2.12,1.986,3.18c2.697,4.314,5.44,8.595,8.234,12.84c0.647,0.985,1.291,1.973,1.944,2.954
	c3.311,4.974,6.675,9.91,10.116,14.787c0.061,0.085,0.119,0.172,0.179,0.258c7.323,10.364,14.948,20.496,22.844,30.404
	c0.554,0.697,1.117,1.386,1.675,2.08c3.403,4.235,6.857,8.427,10.363,12.573c0.596,0.704,1.187,1.41,1.785,2.111
	c12.283,14.407,25.173,28.279,38.642,41.567c0.419,0.412,0.842,0.82,1.262,1.232c4.086,4.01,8.225,7.966,12.415,11.868
	c0.536,0.499,1.071,1,1.609,1.498c14.004,12.955,28.568,25.312,43.665,37.018c0.285,0.222,0.573,0.438,0.859,0.659
	c4.693,3.626,9.438,7.187,14.231,10.687c0.529,0.386,1.056,0.772,1.585,1.156c5.028,3.649,10.102,7.239,15.237,10.747
	c0.003,0.002,0.005,0.004,0.008,0.006l0,0c-107.773-116.673-173.651-272.621-173.651-443.976
	C518.223,795.981,811.266,502.938,1172.755,502.938z"/>
<path style="fill:#92BAE4;" d="M691.874,1601.445L691.874,1601.445c-0.003-0.002-0.006-0.005-0.008-0.006
	c-5.135-3.509-10.209-7.098-15.237-10.747c-0.528-0.384-1.056-0.77-1.585-1.156c-4.793-3.5-9.538-7.061-14.231-10.687
	c-0.286-0.221-0.574-0.438-0.859-0.659c-15.097-11.706-29.661-24.061-43.665-37.018c-0.538-0.497-1.073-0.998-1.609-1.498
	c-4.19-3.902-8.329-7.857-12.415-11.868c-0.42-0.411-0.843-0.819-1.262-1.232c-13.469-13.289-26.36-27.159-38.642-41.567
	c-0.598-0.701-1.19-1.407-1.785-2.111c-3.505-4.147-6.96-8.339-10.363-12.573c-0.558-0.694-1.121-1.383-1.675-2.08
	c-7.897-9.908-15.523-20.039-22.844-30.404c-0.06-0.086-0.118-0.173-0.179-0.258c-3.441-4.877-6.805-9.812-10.116-14.787
	c-0.653-0.981-1.297-1.969-1.944-2.954c-2.793-4.246-5.537-8.526-8.234-12.84c-0.663-1.06-1.328-2.116-1.986-3.18
	c-3.003-4.871-5.953-9.778-8.833-14.733c-0.2-0.344-0.408-0.683-0.608-1.027c-3.212-5.548-6.346-11.146-9.397-16.796
	c-0.149-0.274-0.29-0.553-0.438-0.828c-2.729-5.068-5.382-10.183-7.98-15.33c-0.654-1.296-1.292-2.6-1.938-3.901
	c-2.121-4.273-4.196-8.571-6.225-12.897c-0.669-1.425-1.34-2.849-1.999-4.281c-2.15-4.67-4.243-9.37-6.285-14.099
	c-0.402-0.932-0.821-1.854-1.219-2.788c-2.469-5.789-4.862-11.617-7.168-17.491c-0.175-0.45-0.34-0.906-0.515-1.358
	c-2.038-5.225-4.003-10.486-5.909-15.776c-0.576-1.6-1.132-3.209-1.695-4.815c-1.5-4.265-2.957-8.55-4.37-12.855
	c-0.581-1.773-1.161-3.545-1.727-5.323c-1.437-4.508-2.817-9.04-4.158-13.589c-0.417-1.415-0.853-2.821-1.261-4.24
	c-1.722-5.996-3.374-12.023-4.928-18.089c-0.14-0.548-0.264-1.102-0.403-1.651c-1.373-5.416-2.672-10.861-3.91-16.331
	c-0.419-1.856-0.811-3.721-1.214-5.583c-0.928-4.275-1.818-8.564-2.661-12.869c-0.401-2.05-0.797-4.101-1.179-6.158
	c-0.821-4.413-1.587-8.844-2.318-13.288c-0.294-1.782-0.607-3.557-0.886-5.344c-0.966-6.187-1.862-12.397-2.654-18.64
	c-0.06-0.47-0.104-0.946-0.162-1.417c-0.715-5.746-1.347-11.518-1.913-17.31c-0.196-2.009-0.358-4.027-0.536-6.041
	c-0.385-4.354-0.733-8.718-1.031-13.097c-0.153-2.223-0.295-4.448-0.424-6.677c-0.257-4.428-0.461-8.869-0.63-13.32
	c-0.076-1.998-0.17-3.991-0.228-5.993c-0.167-5.785-0.263-11.587-0.279-17.409H212.155c-0.001-0.607-0.023-1.21-0.023-1.818
	c0,466.175,375.948,844.47,841.19,848.421v-193.982C919.331,1713.624,795.01,1671.915,691.874,1601.445z"/>
<polygon style="fill:#334C99;" points="1347.341,1332.395 1188.156,1332.395 1188.156,1373.47 1385.247,1373.47 1385.247,1022.603 
	1347.341,993.928 "/>
<polygon style="fill:#334C99;" points="1150.25,1124.474 972.651,1124.474 972.651,1332.395 813.466,1332.395 813.466,1373.47 
	1010.557,1373.47 1010.557,1165.549 1150.25,1165.549 "/>
<polygon style="fill:#FFFFFF;" points="972.651,1124.474 1150.25,1124.474 1150.25,1332.395 1347.341,1332.395 1347.341,981.528 
	1204.396,873.393 1061.451,765.259 918.506,873.393 775.56,981.528 775.56,1332.395 972.651,1332.395 "/>
</svg>
