<?xml version="1.0" encoding="UTF-8"?>
<svg version="1.1" xmlns="http://www.w3.org/2000/svg" width="780" height="197">
<path d="M0 0 C1.07604492 -0.02416992 1.07604492 -0.02416992 2.17382812 -0.04882812 C16.58614543 -0.06150387 30.16703152 6.52936683 43.375 11.625 C45.58198997 12.47066617 47.78918896 13.31578698 49.99658203 14.16040039 C57.06411138 16.86769568 64.12597387 19.58959339 71.1875 22.3125 C73.54472333 23.22047051 75.90198229 24.12834852 78.25927734 25.03613281 C90.17725531 29.62674953 102.09169952 34.22646139 114.00390625 38.83203125 C127.49693095 44.04863189 140.99706592 49.24661063 154.5 54.4375 C155.56345642 54.84636444 156.62691284 55.25522888 157.72259521 55.67648315 C163.07100833 57.73276537 168.41950815 59.78882192 173.76806641 61.84472656 C180.23499514 64.33061431 186.70153775 66.81750533 193.16796875 69.3046875 C194.77911308 69.92438164 194.77911308 69.92438164 196.42280579 70.55659485 C200.7588194 72.22437994 205.09481787 73.89220442 209.43081665 75.56002808 C222.55017811 80.6062975 235.66971527 85.65210775 248.7905426 90.69456482 C254.24797003 92.79215627 259.70470211 94.89152084 265.15991211 96.99487305 C274.67205786 100.66134572 284.18657242 104.31981394 293.72366333 107.92100525 C297.77749581 109.45294897 301.82789316 110.99385035 305.87792969 112.53579712 C307.76084657 113.24987382 309.64540264 113.95964633 311.53173828 114.66464233 C321.45051072 118.37282067 330.58042489 122.02438764 339.1875 128.3125 C339.84516357 128.78091309 340.50282715 129.24932617 341.18041992 129.73193359 C352.20370638 137.87448985 358.58872598 152.3186299 361.1875 165.3125 C361.1875 169.2725 361.1875 173.2325 361.1875 177.3125 C123.2575 177.3125 -114.6725 177.3125 -359.8125 177.3125 C-359.8125 161.81599944 -356.98351927 150.683711 -347.8125 138.3125 C-347.090625 137.28125 -346.36875 136.25 -345.625 135.1875 C-332.40939238 120.34139534 -311.12834181 115.04496163 -293.1875 108.1875 C-290.87773556 107.30221469 -288.56808617 106.41662915 -286.25854492 105.53076172 C-281.47375961 103.69575712 -276.68848819 101.86202907 -271.90283203 100.02929688 C-262.03504544 96.24943684 -252.17224141 92.45663519 -242.30987549 88.66265869 C-239.09779396 87.42703437 -235.88557236 86.1917747 -232.67333984 84.95654297 C-216.54808298 78.75474203 -200.42943704 72.53588523 -184.3125 66.3125 C-160.72113453 57.20294308 -137.12110614 48.11612052 -113.51574707 39.04289246 C-104.60653947 35.61828747 -95.6984602 32.19075463 -86.79071045 28.76235962 C-81.24107503 26.62658236 -75.6910756 24.49176248 -70.14013672 22.359375 C-68.0218067 21.54558123 -65.90347983 20.73177929 -63.78515625 19.91796875 C-62.25039642 19.32838882 -62.25039642 19.32838882 -60.68463135 18.72689819 C-55.0547394 16.56292652 -49.42817335 14.39068169 -43.8057251 12.20744324 C-40.63667367 10.97750226 -37.46586712 9.75213195 -34.29473877 8.52755737 C-32.87631608 7.97838691 -31.45875448 7.4269858 -30.04217529 6.87307739 C-19.96864802 2.93473479 -10.88311567 -0.0481128 0 0 Z " fill="#26224C" transform="translate(388.8125,19.6875)"/>
<path d="M0 0 C0.91104492 -0.00945648 1.82208984 -0.01891296 2.76074219 -0.02865601 C3.74204102 -0.02258331 4.72333984 -0.01651062 5.734375 -0.01025391 C6.7440332 -0.01312408 7.75369141 -0.01599426 8.79394531 -0.01895142 C10.92904216 -0.02099329 13.06415766 -0.01545487 15.19921875 -0.00292969 C18.47177871 0.01312181 21.74310356 -0.00277465 25.015625 -0.02197266 C27.0885444 -0.01999025 29.16146303 -0.01614662 31.234375 -0.01025391 C32.70632324 -0.01936295 32.70632324 -0.01936295 34.20800781 -0.02865601 C35.5745752 -0.01447128 35.5745752 -0.01447128 36.96875 0 C38.17096191 0.00358017 38.17096191 0.00358017 39.39746094 0.00723267 C42.01653035 0.48532467 42.90223571 1.27602968 44.484375 3.38818359 C45.05078636 7.50844123 44.95704523 11.62885294 44.93041992 15.78491211 C44.92191633 17.81581178 44.95065879 19.84389049 44.98242188 21.87451172 C44.98177734 23.15648437 44.98113281 24.43845703 44.98046875 25.75927734 C44.98324829 27.5216272 44.98324829 27.5216272 44.98608398 29.31958008 C44.484375 32.38818359 44.484375 32.38818359 43.07275391 34.77368164 C39.05066266 37.282462 35.22158285 36.92075144 30.57421875 36.84912109 C29.61036758 36.84820465 28.64651642 36.84728821 27.65345764 36.84634399 C25.61844958 36.8403083 23.58345038 36.82456327 21.54858398 36.79980469 C18.4298438 36.76327693 15.31229122 36.75878552 12.19335938 36.75927734 C10.21613554 36.74944683 8.23891977 36.73779012 6.26171875 36.72412109 C5.32730453 36.72189545 4.39289032 36.7196698 3.43016052 36.71737671 C2.5623848 36.704617 1.69460907 36.6918573 0.80053711 36.67871094 C0.03760849 36.67108734 -0.72532013 36.66346375 -1.5113678 36.65560913 C-3.515625 36.38818359 -3.515625 36.38818359 -6.515625 34.38818359 C-8.32864303 28.9491295 -7.74299525 23.07956551 -7.765625 17.38818359 C-7.78625 16.09138672 -7.806875 14.79458984 -7.828125 13.45849609 C-7.83328125 12.21841797 -7.8384375 10.97833984 -7.84375 9.70068359 C-7.8530957 8.56244141 -7.86244141 7.42419922 -7.87207031 6.25146484 C-7.515625 3.38818359 -7.515625 3.38818359 -6.27557373 1.73348999 C-4.03794949 0.023048 -2.79827853 0.00833323 0 0 Z " fill="#27244B" transform="translate(566.515625,129.61181640625)"/>
<path d="M0 0 C0.91104492 -0.00945648 1.82208984 -0.01891296 2.76074219 -0.02865601 C3.74204102 -0.02258331 4.72333984 -0.01651062 5.734375 -0.01025391 C6.7440332 -0.01312408 7.75369141 -0.01599426 8.79394531 -0.01895142 C10.92904216 -0.02099329 13.06415766 -0.01545487 15.19921875 -0.00292969 C18.47177871 0.01312181 21.74310356 -0.00277465 25.015625 -0.02197266 C27.0885444 -0.01999025 29.16146303 -0.01614662 31.234375 -0.01025391 C32.70632324 -0.01936295 32.70632324 -0.01936295 34.20800781 -0.02865601 C35.5745752 -0.01447128 35.5745752 -0.01447128 36.96875 0 C38.17096191 0.00358017 38.17096191 0.00358017 39.39746094 0.00723267 C42.01653035 0.48532467 42.90223571 1.27602968 44.484375 3.38818359 C45.05078636 7.50844123 44.95704523 11.62885294 44.93041992 15.78491211 C44.92191633 17.81581178 44.95065879 19.84389049 44.98242188 21.87451172 C44.98177734 23.15648437 44.98113281 24.43845703 44.98046875 25.75927734 C44.98324829 27.5216272 44.98324829 27.5216272 44.98608398 29.31958008 C44.484375 32.38818359 44.484375 32.38818359 43.07275391 34.77368164 C39.05066266 37.282462 35.22158285 36.92075144 30.57421875 36.84912109 C29.61036758 36.84820465 28.64651642 36.84728821 27.65345764 36.84634399 C25.61844958 36.8403083 23.58345038 36.82456327 21.54858398 36.79980469 C18.4298438 36.76327693 15.31229122 36.75878552 12.19335938 36.75927734 C10.21613554 36.74944683 8.23891977 36.73779012 6.26171875 36.72412109 C5.32730453 36.72189545 4.39289032 36.7196698 3.43016052 36.71737671 C2.5623848 36.704617 1.69460907 36.6918573 0.80053711 36.67871094 C0.03760849 36.67108734 -0.72532013 36.66346375 -1.5113678 36.65560913 C-3.515625 36.38818359 -3.515625 36.38818359 -6.515625 34.38818359 C-8.32864303 28.9491295 -7.74299525 23.07956551 -7.765625 17.38818359 C-7.78625 16.09138672 -7.806875 14.79458984 -7.828125 13.45849609 C-7.83328125 12.21841797 -7.8384375 10.97833984 -7.84375 9.70068359 C-7.8530957 8.56244141 -7.86244141 7.42419922 -7.87207031 6.25146484 C-7.515625 3.38818359 -7.515625 3.38818359 -6.27557373 1.73348999 C-4.03794949 0.023048 -2.79827853 0.00833323 0 0 Z M-3.515625 4.38818359 C-3.61545558 6.37575387 -3.64643253 8.36685879 -3.6484375 10.35693359 C-3.64972656 11.56736328 -3.65101563 12.77779297 -3.65234375 14.02490234 C-3.64847656 15.29978516 -3.64460937 16.57466797 -3.640625 17.88818359 C-3.64449219 19.16306641 -3.64835938 20.43794922 -3.65234375 21.75146484 C-3.65105469 22.96189453 -3.64976562 24.17232422 -3.6484375 25.41943359 C-3.64730957 26.53898437 -3.64618164 27.65853516 -3.64501953 28.81201172 C-3.80778868 31.31960161 -3.80778868 31.31960161 -2.515625 32.38818359 C0.57518965 32.4893528 3.64320055 32.52786917 6.734375 32.52099609 C7.66282227 32.52195282 8.59126953 32.52290955 9.54785156 32.52389526 C11.51497465 32.52457714 13.48209996 32.52272231 15.44921875 32.51855469 C18.47140526 32.51320655 21.49344315 32.51849942 24.515625 32.52490234 C26.42187533 32.52424156 28.32812557 32.5229604 30.234375 32.52099609 C31.59997559 32.52403244 31.59997559 32.52403244 32.99316406 32.52713013 C37.06101178 32.92709692 37.06101178 32.92709692 40.484375 31.38818359 C40.58420558 29.40061332 40.61518253 27.4095084 40.6171875 25.41943359 C40.61847656 24.20900391 40.61976563 22.99857422 40.62109375 21.75146484 C40.61529297 19.83914062 40.61529297 19.83914062 40.609375 17.88818359 C40.61324219 16.61330078 40.61710938 15.33841797 40.62109375 14.02490234 C40.61980469 12.81447266 40.61851562 11.60404297 40.6171875 10.35693359 C40.61549561 8.67760742 40.61549561 8.67760742 40.61376953 6.96435547 C40.77653868 4.45676558 40.77653868 4.45676558 39.484375 3.38818359 C36.39356035 3.28701439 33.32554945 3.24849802 30.234375 3.25537109 C29.30592773 3.25441437 28.37748047 3.25345764 27.42089844 3.25247192 C25.45377535 3.25179004 23.48665004 3.25364488 21.51953125 3.2578125 C18.49734474 3.26316064 15.47530685 3.25786777 12.453125 3.25146484 C10.54687467 3.25212562 8.64062443 3.25340678 6.734375 3.25537109 C5.82397461 3.25334686 4.91357422 3.25132263 3.97558594 3.24923706 C-0.09226178 2.84927027 -0.09226178 2.84927027 -3.515625 4.38818359 Z " fill="#9E9BC5" transform="translate(566.515625,129.61181640625)"/>
<path d="M0 0 C0.69134033 -0.00478363 1.38268066 -0.00956726 2.0949707 -0.01449585 C3.55064176 -0.01788486 5.00638996 -0.008752 6.46191406 0.01220703 C8.68207497 0.03899704 10.89718261 0.01243603 13.1171875 -0.01953125 C14.53646942 -0.01622696 15.95574821 -0.00982031 17.375 0 C18.65761719 0.00563965 19.94023437 0.0112793 21.26171875 0.01708984 C25.56150672 0.82912221 27.05395344 2.22491674 29.6875 5.6640625 C30.25512695 7.70043945 30.25512695 7.70043945 30.17578125 9.65234375 C30.15966797 10.35810547 30.14355469 11.06386719 30.12695312 11.79101562 C30.06411133 12.87286133 30.06411133 12.87286133 30 13.9765625 C29.97744141 14.71712891 29.95488281 15.45769531 29.93164062 16.22070312 C29.8730815 18.03603607 29.78340886 19.85031931 29.6875 21.6640625 C28.3675 21.6640625 27.0475 21.6640625 25.6875 21.6640625 C25.3575 16.3840625 25.0275 11.1040625 24.6875 5.6640625 C20.29086967 5.64115012 15.89444512 5.62122417 11.49780273 5.60913086 C10.00105082 5.60409129 8.50430384 5.59725963 7.00756836 5.58862305 C4.86050193 5.57654091 2.71350038 5.57083059 0.56640625 5.56640625 C-0.7270874 5.56116943 -2.02058105 5.55593262 -3.35327148 5.55053711 C-6.19902404 5.32409318 -6.19902404 5.32409318 -7.3125 6.6640625 C-7.41253289 8.79759424 -7.44331048 10.93443792 -7.4453125 13.0703125 C-7.44660156 14.37097656 -7.44789063 15.67164063 -7.44921875 17.01171875 C-7.44712402 17.69250488 -7.4450293 18.37329102 -7.44287109 19.07470703 C-7.4375224 21.15534765 -7.4428168 23.23577239 -7.44921875 25.31640625 C-7.44728516 27.26740234 -7.44728516 27.26740234 -7.4453125 29.2578125 C-7.44418457 30.46115234 -7.44305664 31.66449219 -7.44189453 32.90429688 C-7.62705977 35.57390732 -7.62705977 35.57390732 -6.3125 36.6640625 C-3.78653741 36.90059773 -1.28142793 37.08579942 1.25 37.2265625 C1.96091797 37.26974609 2.67183594 37.31292969 3.40429688 37.35742188 C5.16511912 37.46378027 6.9262832 37.56445096 8.6875 37.6640625 C8.6875 38.9840625 8.6875 40.3040625 8.6875 41.6640625 C6.12321485 41.79965925 3.56614784 41.89839438 1 41.9765625 C0.27876953 42.01845703 -0.44246094 42.06035156 -1.18554688 42.10351562 C-2.24418945 42.12768555 -2.24418945 42.12768555 -3.32421875 42.15234375 C-3.96834717 42.17852783 -4.61247559 42.20471191 -5.27612305 42.23168945 C-8.67483427 41.2843206 -10.16534812 39.39253935 -12.3125 36.6640625 C-12.95947266 33.33007812 -12.95947266 33.33007812 -12.9765625 29.5703125 C-12.98134613 28.90116821 -12.98612976 28.23202393 -12.99105835 27.54260254 C-12.99444656 26.13400916 -12.98531922 24.72533598 -12.96435547 23.31689453 C-12.93756289 21.16910364 -12.96412766 19.02653597 -12.99609375 16.87890625 C-12.99278945 15.50519688 -12.98638276 14.13149074 -12.9765625 12.7578125 C-12.97092285 11.51708984 -12.9652832 10.27636719 -12.95947266 8.99804688 C-11.52023945 1.58137947 -6.98748762 0.03072388 0 0 Z " fill="#9E9AC5" transform="translate(180.3125,126.3359375)"/>
<path d="M0 0 C2.8125 2.0625 2.8125 2.0625 5 5 C5.51361669 8.65951893 5.43348212 10.97047997 4 14.375 C1.4005307 16.48706881 -0.68013539 16.97211356 -3.9921875 17.22265625 C-6 17 -6 17 -9 15 C-11.48111179 11.27833231 -11.71869236 9.39200889 -11 5 C-7.84983264 1.00978802 -5.11574493 -0.71382487 0 0 Z " fill="#9F9BC6" transform="translate(192,139)"/>
<path d="M0 0 C9.9 0 19.8 0 30 0 C30 1.32 30 2.64 30 4 C20.1 4 10.2 4 0 4 C0 2.68 0 1.36 0 0 Z " fill="#9E9AC5" transform="translate(570,154)"/>
<path d="M0 0 C1.2684375 0.12375 1.2684375 0.12375 2.5625 0.25 C4.5625 3.25 4.5625 3.25 4.25 5.375 C3.5625 7.25 3.5625 7.25 2.5625 8.25 C0.125 8.4375 0.125 8.4375 -2.4375 8.25 C-3.0975 7.59 -3.7575 6.93 -4.4375 6.25 C-3.72185719 0.38172894 -3.72185719 0.38172894 0 0 Z " fill="#9793BE" transform="translate(201.4375,155.75)"/>
<path d="M0 0 C1.98 0.495 1.98 0.495 4 1 C4 2.32 4 3.64 4 5 C2.35 5 0.7 5 -1 5 C-0.67 3.35 -0.34 1.7 0 0 Z " fill="#918DB8" transform="translate(599,137)"/>
<path d="M0 0 C1.98 0.495 1.98 0.495 4 1 C4 2.32 4 3.64 4 5 C2.35 4.67 0.7 4.34 -1 4 C-0.67 2.68 -0.34 1.36 0 0 Z " fill="#9490BA" transform="translate(587,145)"/>
<path d="M0 0 C1.98 0.495 1.98 0.495 4 1 C3.67 2.32 3.34 3.64 3 5 C1.68 5 0.36 5 -1 5 C-0.67 3.35 -0.34 1.7 0 0 Z " fill="#9490BB" transform="translate(580,145)"/>
<path d="M0 0 C1.32 0.66 2.64 1.32 4 2 C3.67 2.99 3.34 3.98 3 5 C1.35 4.67 -0.3 4.34 -2 4 C-1.34 2.68 -0.68 1.36 0 0 Z " fill="#928EB9" transform="translate(584,137)"/>
<path d="M0 0 C1.98 0.495 1.98 0.495 4 1 C3.67 2.32 3.34 3.64 3 5 C1.68 5 0.36 5 -1 5 C-0.67 3.35 -0.34 1.7 0 0 Z " fill="#938FB9" transform="translate(576,137)"/>
<path d="M0 0 C1.98 0.495 1.98 0.495 4 1 C4 2.32 4 3.64 4 5 C2.35 4.67 0.7 4.34 -1 4 C-0.67 2.68 -0.34 1.36 0 0 Z " fill="#9490BB" transform="translate(568,137)"/>
<path d="M0 0 C1.98 0.495 1.98 0.495 4 1 C3.67 2.32 3.34 3.64 3 5 C1.68 4.67 0.36 4.34 -1 4 C-0.67 2.68 -0.34 1.36 0 0 Z " fill="#9B97C1" transform="translate(595,145)"/>
<path d="M0 0 C1.98 0.495 1.98 0.495 4 1 C3.67 2.32 3.34 3.64 3 5 C1.68 4.67 0.36 4.34 -1 4 C-0.67 2.68 -0.34 1.36 0 0 Z " fill="#9A96C1" transform="translate(572,145)"/>
<path d="M0 0 C1.98 0.495 1.98 0.495 4 1 C4 2.32 4 3.64 4 5 C2.35 4.67 0.7 4.34 -1 4 C-0.67 2.68 -0.34 1.36 0 0 Z " fill="#9692BC" transform="translate(591,137)"/>
</svg>
