<?xml version="1.0" encoding="utf-8"?>
<!-- Generator: Adobe Illustrator 27.5.0, SVG Export Plug-In . SVG Version: 6.00 Build 0)  -->
<svg version="1.1" xmlns="http://www.w3.org/2000/svg" xmlns:xlink="http://www.w3.org/1999/xlink" x="0px" y="0px"
	 viewBox="0 0 799.92 799.92" style="enable-background:new 0 0 799.92 799.92;" xml:space="preserve">
<g id="Background">
	<path style="fill-rule:evenodd;clip-rule:evenodd;fill:#003A69;" d="M0,799.92h799.92V0H0V799.92z"/>
</g>
<g id="Objects">
	<g>
		<g>
			<path style="fill-rule:evenodd;clip-rule:evenodd;fill:#85DAF8;" d="M304.121,776.012c0.324-0.001,0.621-0.088,0.889-0.256
				c0.272-0.17,0.488-0.432,0.65-0.784c0.16-0.354,0.239-0.793,0.239-1.318c0-0.498-0.08-0.924-0.239-1.278
				c-0.162-0.358-0.381-0.634-0.656-0.818c-0.27-0.188-0.564-0.279-0.883-0.283v-1.342c0.302,0.043,0.57,0.123,0.805,0.239
				c0.369,0.184,0.727,0.469,1.077,0.85v-2.748c0-0.382,0.076-0.67,0.23-0.866c0.152-0.198,0.369-0.292,0.649-0.292
				c0.283,0,0.501,0.089,0.652,0.271c0.154,0.178,0.23,0.442,0.23,0.792v8.209c0,0.354-0.082,0.621-0.245,0.798
				c-0.165,0.178-0.378,0.265-0.637,0.265c-0.254,0-0.464-0.089-0.629-0.274c-0.166-0.182-0.25-0.447-0.25-0.788v-0.185
				c-0.25,0.289-0.496,0.519-0.739,0.699c-0.243,0.18-0.505,0.315-0.792,0.41c-0.113,0.036-0.23,0.065-0.351,0.088V776.012z
				 M302.342,773.653c0,0.503,0.078,0.933,0.235,1.287c0.157,0.356,0.373,0.62,0.644,0.8c0.272,0.182,0.57,0.271,0.894,0.271h0.006
				v1.387c-0.184,0.033-0.377,0.05-0.578,0.05c-0.446,0-0.859-0.093-1.237-0.281c-0.379-0.188-0.709-0.457-0.986-0.809
				c-0.278-0.347-0.488-0.761-0.631-1.234c-0.144-0.472-0.215-0.983-0.215-1.534c0-1.162,0.284-2.069,0.853-2.721
				c0.568-0.648,1.316-0.974,2.243-0.974c0.195,0,0.379,0.013,0.552,0.036v1.342h-0.02c-0.341,0-0.646,0.095-0.914,0.287
				c-0.267,0.193-0.475,0.474-0.622,0.835C302.415,772.754,302.342,773.176,302.342,773.653z"/>
			<path style="fill-rule:evenodd;clip-rule:evenodd;fill:#85DAF8;" d="M312.873,773.065h1.686
				c-0.044-0.636-0.216-1.112-0.516-1.427c-0.296-0.315-0.688-0.474-1.171-0.475v-1.295h0.058c0.728,0,1.351,0.15,1.869,0.461
				c0.523,0.306,0.912,0.701,1.173,1.188c0.259,0.485,0.386,0.983,0.386,1.487c0,0.466-0.135,0.772-0.402,0.911
				c-0.269,0.138-0.644,0.207-1.131,0.207h-1.952V773.065L312.873,773.065z M312.873,777.445v-1.236
				c0.046,0.004,0.092,0.006,0.14,0.006c0.222,0,0.425-0.025,0.61-0.077c0.184-0.05,0.359-0.136,0.534-0.247
				c0.174-0.111,0.333-0.23,0.478-0.357c0.145-0.127,0.332-0.3,0.565-0.516c0.096-0.084,0.232-0.127,0.409-0.127
				c0.191,0,0.345,0.055,0.464,0.158c0.118,0.104,0.178,0.254,0.178,0.442c0,0.169-0.066,0.364-0.197,0.592
				c-0.133,0.224-0.331,0.44-0.598,0.647c-0.264,0.207-0.598,0.376-1.002,0.517c-0.402,0.134-0.864,0.201-1.388,0.201
				C313,777.448,312.935,777.447,312.873,777.445z M311.186,773.065h1.687v1.058h-1.687c0.003,0.423,0.088,0.793,0.254,1.116
				c0.166,0.325,0.386,0.567,0.664,0.729c0.235,0.143,0.491,0.222,0.769,0.241v1.236c-1.103-0.035-1.967-0.376-2.595-1.019
				c-0.664-0.682-0.996-1.606-0.996-2.773c0-0.552,0.082-1.063,0.246-1.533c0.165-0.469,0.403-0.874,0.716-1.211
				c0.314-0.333,0.699-0.591,1.16-0.773c0.442-0.173,0.933-0.262,1.469-0.268v1.295h-0.005c-0.462,0-0.845,0.158-1.14,0.478
				C311.429,771.963,311.248,772.438,311.186,773.065z"/>
			<path style="fill-rule:evenodd;clip-rule:evenodd;fill:#85DAF8;" d="M323.92,775.018c0,0.51-0.125,0.95-0.375,1.314
				c-0.251,0.369-0.62,0.648-1.108,0.835c-0.488,0.188-1.083,0.281-1.782,0.281c-0.669,0-1.242-0.101-1.719-0.306
				c-0.479-0.203-0.829-0.463-1.058-0.766c-0.226-0.308-0.341-0.616-0.341-0.926c0-0.205,0.072-0.379,0.218-0.523
				c0.147-0.146,0.329-0.221,0.554-0.221c0.194,0,0.344,0.05,0.45,0.146c0.103,0.092,0.204,0.228,0.3,0.399
				c0.19,0.333,0.418,0.58,0.684,0.741c0.267,0.166,0.63,0.247,1.089,0.247c0.372,0,0.677-0.083,0.917-0.247
				c0.238-0.167,0.357-0.356,0.357-0.568c0-0.328-0.125-0.568-0.371-0.719c-0.248-0.148-0.656-0.294-1.226-0.429
				c-0.639-0.159-1.162-0.323-1.563-0.501c-0.401-0.175-0.722-0.404-0.964-0.69c-0.241-0.289-0.362-0.639-0.362-1.058
				c0-0.371,0.11-0.725,0.334-1.061c0.222-0.329,0.551-0.591,0.984-0.79c0.435-0.199,0.959-0.296,1.57-0.296
				c0.483,0,0.915,0.049,1.299,0.148c0.385,0.101,0.705,0.235,0.963,0.405c0.257,0.166,0.452,0.353,0.585,0.558
				c0.134,0.205,0.202,0.403,0.202,0.6c0,0.214-0.072,0.39-0.215,0.524c-0.142,0.134-0.347,0.204-0.61,0.204
				c-0.191,0-0.354-0.054-0.488-0.161c-0.133-0.108-0.287-0.273-0.46-0.492c-0.14-0.182-0.306-0.329-0.496-0.438
				c-0.192-0.108-0.451-0.165-0.779-0.165c-0.336,0-0.614,0.076-0.837,0.22c-0.223,0.141-0.335,0.32-0.335,0.529
				c0,0.199,0.082,0.359,0.247,0.482c0.164,0.127,0.382,0.231,0.661,0.313c0.276,0.08,0.659,0.18,1.145,0.299
				c0.578,0.142,1.049,0.307,1.415,0.503c0.367,0.196,0.642,0.426,0.831,0.693C323.827,774.371,323.92,774.676,323.92,775.018z"/>
			<path style="fill-rule:evenodd;clip-rule:evenodd;fill:#85DAF8;" d="M327.355,770.935v5.383c0,0.373-0.088,0.653-0.265,0.845
				c-0.176,0.192-0.402,0.285-0.674,0.285c-0.273,0-0.496-0.095-0.665-0.292c-0.171-0.195-0.254-0.477-0.254-0.838v-5.325
				c0-0.366,0.083-0.647,0.254-0.83c0.17-0.188,0.392-0.28,0.665-0.28c0.272,0,0.498,0.093,0.674,0.28
				C327.267,770.346,327.355,770.605,327.355,770.935L327.355,770.935z M326.436,769.017c-0.26,0-0.481-0.083-0.664-0.238
				c-0.185-0.159-0.276-0.386-0.276-0.676c0-0.264,0.094-0.482,0.283-0.651c0.188-0.173,0.406-0.256,0.658-0.256
				c0.239,0,0.454,0.075,0.64,0.229c0.186,0.159,0.279,0.383,0.279,0.679c0,0.286-0.091,0.509-0.271,0.673
				C326.902,768.933,326.685,769.017,326.436,769.017z"/>
			<path style="fill-rule:evenodd;clip-rule:evenodd;fill:#85DAF8;" d="M332.521,775.894c0.303-0.003,0.59-0.086,0.858-0.248
				c0.275-0.168,0.5-0.416,0.671-0.751c0.175-0.334,0.26-0.739,0.26-1.216c0-0.76-0.167-1.351-0.502-1.773
				c-0.327-0.416-0.757-0.625-1.288-0.633v-1.331c0.286,0.049,0.547,0.134,0.781,0.255c0.386,0.201,0.744,0.521,1.079,0.951v-0.252
				c0-0.32,0.078-0.572,0.238-0.748c0.158-0.179,0.362-0.266,0.611-0.266c0.36,0,0.598,0.119,0.717,0.352
				c0.118,0.23,0.177,0.566,0.177,1.012v5.406c0,0.615-0.064,1.149-0.198,1.595c-0.13,0.447-0.341,0.812-0.633,1.104
				c-0.29,0.289-0.671,0.509-1.142,0.648c-0.443,0.13-0.986,0.201-1.629,0.209v-1.296c0.408-0.013,0.73-0.079,0.968-0.199
				c0.267-0.132,0.452-0.32,0.56-0.562c0.107-0.243,0.166-0.501,0.186-0.772c0.018-0.275,0.034-0.718,0.044-1.327
				c-0.289,0.396-0.619,0.704-0.996,0.912c-0.227,0.127-0.481,0.216-0.762,0.266V775.894z M330.731,773.606
				c0,0.752,0.164,1.324,0.495,1.71c0.33,0.384,0.755,0.578,1.278,0.578h0.017v1.336c-0.181,0.032-0.373,0.049-0.576,0.049
				c-0.622,0-1.167-0.16-1.634-0.481c-0.466-0.314-0.823-0.762-1.072-1.335c-0.251-0.573-0.376-1.234-0.376-1.986
				c0-0.555,0.077-1.06,0.228-1.509c0.153-0.451,0.369-0.832,0.65-1.141c0.283-0.31,0.608-0.541,0.977-0.699
				c0.367-0.153,0.772-0.233,1.213-0.233c0.207,0,0.404,0.017,0.589,0.047v1.331h-0.031c-0.532,0-0.959,0.2-1.278,0.606
				C330.891,772.283,330.731,772.856,330.731,773.606L330.731,773.606z M332.521,778.913v1.296l-0.126,0.001
				c-0.641,0-1.215-0.09-1.719-0.27c-0.504-0.179-0.893-0.413-1.167-0.694c-0.271-0.287-0.407-0.575-0.407-0.878
				c0-0.228,0.077-0.41,0.231-0.552c0.154-0.147,0.339-0.218,0.558-0.218c0.273,0,0.512,0.12,0.717,0.36
				c0.1,0.123,0.202,0.249,0.31,0.373c0.108,0.122,0.225,0.231,0.355,0.321c0.128,0.089,0.285,0.153,0.466,0.196
				c0.181,0.043,0.391,0.065,0.627,0.065L332.521,778.913z"/>
			<path style="fill-rule:evenodd;clip-rule:evenodd;fill:#85DAF8;" d="M339.697,770.909v0.227c0.327-0.434,0.685-0.751,1.074-0.95
				c0.387-0.202,0.834-0.304,1.339-0.304c0.49,0,0.93,0.106,1.316,0.316c0.384,0.215,0.674,0.52,0.866,0.909
				c0.122,0.227,0.201,0.475,0.237,0.735c0.037,0.266,0.056,0.601,0.056,1.008v3.467c0,0.373-0.085,0.653-0.255,0.845
				c-0.171,0.192-0.394,0.285-0.665,0.285c-0.278,0-0.502-0.095-0.675-0.292c-0.172-0.195-0.259-0.477-0.259-0.838v-3.103
				c0-0.611-0.085-1.083-0.255-1.409c-0.17-0.324-0.511-0.487-1.021-0.487c-0.332,0-0.634,0.101-0.906,0.297
				c-0.273,0.194-0.473,0.468-0.6,0.814c-0.09,0.281-0.137,0.8-0.137,1.556v2.333c0,0.375-0.088,0.661-0.262,0.849
				c-0.175,0.188-0.402,0.281-0.679,0.281c-0.267,0-0.488-0.095-0.661-0.292c-0.173-0.195-0.258-0.477-0.258-0.838v-5.383
				c0-0.354,0.077-0.617,0.232-0.792c0.154-0.174,0.365-0.261,0.633-0.261c0.163,0,0.312,0.036,0.443,0.113
				c0.131,0.078,0.238,0.193,0.317,0.35C339.657,770.5,339.697,770.688,339.697,770.909z"/>
			<path style="fill-rule:evenodd;clip-rule:evenodd;fill:#85DAF8;" d="M349.682,773.065h1.688
				c-0.046-0.636-0.218-1.112-0.516-1.427c-0.296-0.315-0.688-0.474-1.171-0.475v-1.295h0.059c0.726,0,1.35,0.15,1.87,0.461
				c0.52,0.306,0.911,0.701,1.17,1.188c0.258,0.485,0.388,0.983,0.388,1.487c0,0.466-0.134,0.772-0.402,0.911
				c-0.268,0.138-0.643,0.207-1.132,0.207h-1.953V773.065L349.682,773.065z M349.682,777.445v-1.236
				c0.046,0.004,0.092,0.006,0.139,0.006c0.223,0,0.425-0.025,0.61-0.077c0.185-0.05,0.361-0.136,0.537-0.247
				c0.172-0.111,0.332-0.23,0.476-0.357c0.146-0.127,0.335-0.3,0.565-0.516c0.097-0.084,0.233-0.127,0.409-0.127
				c0.192,0,0.345,0.055,0.463,0.158c0.119,0.104,0.179,0.254,0.179,0.442c0,0.169-0.065,0.364-0.199,0.592
				c-0.131,0.224-0.33,0.44-0.597,0.647c-0.263,0.207-0.598,0.376-1.001,0.517c-0.401,0.134-0.866,0.201-1.388,0.201
				C349.81,777.448,349.746,777.447,349.682,777.445z M347.994,773.065h1.688v1.058h-1.688c0.004,0.423,0.088,0.793,0.254,1.116
				c0.167,0.325,0.387,0.567,0.661,0.729c0.237,0.143,0.494,0.222,0.772,0.241v1.236c-1.102-0.035-1.966-0.376-2.596-1.019
				c-0.662-0.682-0.995-1.606-0.995-2.773c0-0.552,0.085-1.063,0.246-1.533c0.163-0.469,0.402-0.874,0.717-1.211
				c0.314-0.333,0.698-0.591,1.158-0.773c0.444-0.173,0.932-0.262,1.47-0.268v1.295h-0.004c-0.463,0-0.845,0.158-1.142,0.478
				C348.239,771.963,348.058,772.438,347.994,773.065z"/>
			<path style="fill-rule:evenodd;clip-rule:evenodd;fill:#85DAF8;" d="M357.956,776.012c0.325-0.001,0.62-0.088,0.89-0.256
				c0.268-0.17,0.485-0.432,0.647-0.784c0.161-0.354,0.242-0.793,0.242-1.318c0-0.498-0.081-0.924-0.242-1.278
				c-0.163-0.358-0.38-0.634-0.655-0.818c-0.268-0.188-0.562-0.279-0.882-0.283v-1.342c0.302,0.043,0.57,0.123,0.802,0.239
				c0.369,0.184,0.727,0.469,1.078,0.85v-2.748c0-0.382,0.076-0.67,0.229-0.866c0.152-0.198,0.369-0.292,0.652-0.292
				c0.281,0,0.497,0.089,0.65,0.271c0.152,0.178,0.228,0.442,0.228,0.792v8.209c0,0.354-0.081,0.621-0.245,0.798
				c-0.164,0.178-0.376,0.265-0.633,0.265c-0.256,0-0.466-0.089-0.632-0.274c-0.166-0.182-0.249-0.447-0.249-0.788v-0.185
				c-0.251,0.289-0.496,0.519-0.741,0.699c-0.243,0.18-0.507,0.315-0.789,0.41c-0.113,0.036-0.23,0.066-0.351,0.088V776.012z
				 M356.176,773.653c0,0.503,0.079,0.933,0.235,1.287c0.157,0.356,0.372,0.62,0.644,0.8c0.273,0.182,0.571,0.271,0.892,0.271h0.009
				v1.387c-0.184,0.033-0.377,0.05-0.58,0.05c-0.445,0-0.859-0.093-1.239-0.281c-0.378-0.188-0.707-0.457-0.984-0.809
				c-0.278-0.347-0.487-0.761-0.63-1.234c-0.144-0.472-0.215-0.983-0.215-1.534c0-1.162,0.282-2.069,0.853-2.721
				c0.569-0.648,1.316-0.974,2.244-0.974c0.195,0,0.38,0.013,0.553,0.036v1.342h-0.023c-0.339,0-0.644,0.095-0.912,0.287
				c-0.269,0.193-0.476,0.474-0.625,0.835C356.248,772.754,356.176,773.176,356.176,773.653z"/>
			<path style="fill-rule:evenodd;clip-rule:evenodd;fill:#85DAF8;" d="M370.54,776.012h0.061c0.468,0,0.872-0.205,1.21-0.611
				c0.34-0.407,0.507-0.989,0.507-1.747c0-0.495-0.069-0.913-0.21-1.271c-0.141-0.353-0.342-0.629-0.601-0.822
				c-0.257-0.192-0.561-0.287-0.907-0.287l-0.061,0.001v-1.341c0.173-0.025,0.357-0.038,0.553-0.038
				c0.618,0,1.159,0.148,1.625,0.439c0.466,0.292,0.828,0.716,1.083,1.276c0.258,0.553,0.386,1.215,0.386,1.979
				c0,0.566-0.071,1.082-0.215,1.551c-0.143,0.47-0.352,0.88-0.624,1.225c-0.272,0.345-0.603,0.614-0.992,0.802
				c-0.388,0.188-0.816,0.281-1.284,0.281c-0.185,0-0.362-0.015-0.533-0.042V776.012z M368.761,773.706
				c0,0.741,0.169,1.312,0.507,1.708c0.327,0.383,0.75,0.583,1.272,0.598v1.395c-0.094-0.016-0.186-0.035-0.276-0.059
				c-0.251-0.068-0.467-0.159-0.644-0.272c-0.177-0.109-0.328-0.224-0.456-0.344c-0.123-0.117-0.288-0.295-0.491-0.531v0.185
				c0,0.351-0.083,0.614-0.254,0.798c-0.167,0.178-0.38,0.265-0.64,0.265c-0.263,0-0.474-0.087-0.631-0.265
				c-0.156-0.184-0.236-0.447-0.236-0.798l0.001-8.13c0-0.373,0.077-0.658,0.228-0.852c0.154-0.196,0.364-0.29,0.638-0.29
				c0.287,0,0.506,0.091,0.662,0.277c0.154,0.184,0.232,0.445,0.232,0.785v2.844c0.349-0.365,0.706-0.643,1.069-0.834
				c0.232-0.124,0.497-0.208,0.798-0.253v1.341c-0.329,0.011-0.624,0.105-0.885,0.286c-0.277,0.193-0.498,0.474-0.656,0.841
				C368.839,772.769,368.761,773.201,368.761,773.706z"/>
			<path style="fill-rule:evenodd;clip-rule:evenodd;fill:#85DAF8;" d="M377.215,777.682l0.171-0.416l-2.292-5.768
				c-0.14-0.334-0.211-0.575-0.211-0.721c0-0.158,0.042-0.313,0.125-0.447c0.081-0.137,0.192-0.244,0.336-0.325
				c0.142-0.083,0.292-0.122,0.447-0.122c0.269,0,0.47,0.084,0.606,0.254c0.136,0.17,0.259,0.414,0.362,0.732l1.576,4.582
				l1.491-4.261c0.119-0.347,0.228-0.614,0.321-0.811c0.095-0.195,0.198-0.327,0.305-0.394c0.105-0.069,0.256-0.103,0.452-0.103
				c0.141,0,0.276,0.036,0.405,0.113c0.131,0.073,0.229,0.175,0.299,0.303c0.071,0.127,0.107,0.26,0.107,0.4
				c-0.017,0.083-0.048,0.208-0.087,0.366c-0.042,0.163-0.092,0.326-0.152,0.487l-2.427,6.352c-0.209,0.563-0.413,0.998-0.614,1.314
				c-0.198,0.321-0.462,0.565-0.793,0.734c-0.331,0.172-0.774,0.257-1.332,0.257c-0.545,0-0.955-0.061-1.228-0.177
				c-0.272-0.117-0.409-0.333-0.409-0.647c0-0.215,0.064-0.379,0.194-0.496c0.13-0.119,0.321-0.174,0.578-0.174
				c0.098,0,0.197,0.014,0.293,0.041c0.118,0.027,0.22,0.039,0.307,0.039c0.214,0,0.381-0.029,0.503-0.095
				c0.124-0.06,0.234-0.173,0.331-0.329C376.975,778.217,377.088,777.985,377.215,777.682z"/>
		</g>
		<g>
			<path style="fill-rule:evenodd;clip-rule:evenodd;fill:#85DAF8;" d="M419.08,767.525h0.555v-0.698
				c0-0.727,0.093-1.304,0.279-1.729c0.179-0.429,0.493-0.742,0.934-0.937c0.44-0.197,1.041-0.294,1.811-0.294
				c1.351,0,2.032,0.332,2.032,0.995c0,0.212-0.074,0.397-0.216,0.554c-0.141,0.152-0.307,0.231-0.503,0.231
				c-0.09,0-0.247-0.017-0.468-0.054c-0.22-0.033-0.405-0.05-0.561-0.05c-0.421,0-0.689,0.122-0.807,0.368
				c-0.12,0.248-0.181,0.601-0.181,1.057v0.557h0.57c0.887,0,1.329,0.268,1.329,0.8c0,0.378-0.118,0.621-0.353,0.722
				c-0.237,0.102-0.56,0.158-0.977,0.158h-0.57v6.148c0,0.458-0.112,0.809-0.326,1.053c-0.218,0.241-0.501,0.357-0.85,0.357
				c-0.326,0-0.602-0.116-0.819-0.357c-0.218-0.244-0.327-0.595-0.327-1.053v-6.148h-0.639c-0.346,0-0.609-0.081-0.8-0.241
				c-0.186-0.154-0.282-0.355-0.282-0.604C417.914,767.803,418.306,767.525,419.08,767.525z"/>
			<path style="fill-rule:evenodd;clip-rule:evenodd;fill:#85DAF8;" d="M427.378,773.411v1.942c0,0.468-0.109,0.825-0.331,1.06
				c-0.222,0.234-0.5,0.35-0.845,0.35c-0.329,0-0.607-0.116-0.822-0.355c-0.216-0.239-0.325-0.59-0.325-1.055v-6.465
				c0-1.048,0.376-1.566,1.13-1.566c0.386,0,0.665,0.121,0.836,0.364c0.173,0.241,0.264,0.604,0.281,1.08
				c0.278-0.476,0.563-0.839,0.854-1.08c0.293-0.243,0.683-0.364,1.171-0.364c0.486,0,0.961,0.121,1.42,0.364
				c0.462,0.241,0.688,0.567,0.688,0.967c0,0.288-0.095,0.52-0.293,0.706c-0.197,0.183-0.403,0.273-0.636,0.273
				c-0.083,0-0.288-0.051-0.614-0.152c-0.326-0.109-0.613-0.162-0.866-0.162c-0.338,0-0.617,0.093-0.831,0.273
				c-0.216,0.176-0.384,0.44-0.504,0.792c-0.117,0.352-0.199,0.771-0.246,1.257C427.399,772.124,427.378,772.715,427.378,773.411z"
				/>
			<path style="fill-rule:evenodd;clip-rule:evenodd;fill:#85DAF8;" d="M436.315,771.295h2.106
				c-0.061-0.794-0.271-1.389-0.642-1.781c-0.371-0.394-0.86-0.592-1.465-0.592v-1.616h0.074c0.906,0,1.682,0.188,2.33,0.575
				c0.651,0.381,1.139,0.875,1.463,1.482c0.321,0.605,0.485,1.227,0.485,1.855c0,0.58-0.167,0.964-0.503,1.137
				c-0.334,0.172-0.803,0.258-1.413,0.258h-2.437V771.295L436.315,771.295z M436.315,776.76v-1.542
				c0.058,0.004,0.116,0.006,0.175,0.006c0.278,0,0.531-0.03,0.762-0.095c0.227-0.063,0.454-0.17,0.665-0.31
				c0.218-0.138,0.417-0.286,0.6-0.445c0.18-0.159,0.418-0.374,0.702-0.644c0.121-0.104,0.295-0.157,0.514-0.157
				c0.236,0,0.43,0.067,0.577,0.197c0.146,0.129,0.22,0.316,0.22,0.553c0,0.211-0.079,0.453-0.245,0.737
				c-0.167,0.28-0.413,0.551-0.74,0.809c-0.334,0.258-0.752,0.469-1.255,0.644c-0.503,0.168-1.078,0.252-1.732,0.252
				C436.477,776.764,436.395,776.762,436.315,776.76z M434.21,771.295h2.105v1.318h-2.105c0.009,0.528,0.112,0.99,0.318,1.393
				c0.207,0.405,0.478,0.708,0.829,0.909c0.292,0.179,0.612,0.277,0.958,0.302v1.542c-1.377-0.044-2.457-0.469-3.235-1.272
				c-0.829-0.85-1.245-2.003-1.245-3.459c0-0.688,0.103-1.326,0.309-1.913c0.203-0.586,0.501-1.092,0.891-1.512
				c0.391-0.416,0.875-0.738,1.45-0.964c0.549-0.216,1.16-0.326,1.831-0.334v1.616h-0.004c-0.578,0-1.055,0.196-1.429,0.596
				C434.514,769.919,434.289,770.511,434.21,771.295z"/>
			<path style="fill-rule:evenodd;clip-rule:evenodd;fill:#85DAF8;" d="M446.669,771.295h2.104
				c-0.059-0.794-0.271-1.389-0.639-1.781c-0.373-0.394-0.858-0.591-1.466-0.592v-1.616h0.07c0.911,0,1.689,0.188,2.338,0.575
				c0.647,0.381,1.138,0.875,1.461,1.482c0.323,0.605,0.483,1.227,0.483,1.855c0,0.58-0.17,0.964-0.503,1.137
				c-0.332,0.172-0.801,0.258-1.411,0.258h-2.439V771.295L446.669,771.295z M446.669,776.76v-1.542
				c0.058,0.004,0.115,0.006,0.175,0.006c0.278,0,0.529-0.03,0.759-0.095c0.233-0.063,0.456-0.17,0.668-0.31
				c0.218-0.138,0.417-0.286,0.599-0.445c0.183-0.159,0.42-0.374,0.708-0.644c0.119-0.104,0.283-0.157,0.508-0.157
				c0.24,0,0.434,0.067,0.58,0.197c0.145,0.129,0.22,0.316,0.22,0.553c0,0.211-0.081,0.453-0.243,0.737
				c-0.167,0.28-0.417,0.551-0.749,0.809c-0.331,0.258-0.747,0.469-1.248,0.644c-0.506,0.168-1.081,0.252-1.732,0.252
				C446.83,776.764,446.749,776.762,446.669,776.76z M444.564,771.295h2.104v1.318h-2.104c0.006,0.528,0.113,0.99,0.318,1.393
				c0.207,0.405,0.482,0.708,0.825,0.909c0.296,0.179,0.615,0.277,0.961,0.302v1.542c-1.374-0.044-2.453-0.47-3.236-1.272
				c-0.829-0.85-1.241-2.003-1.241-3.459c0-0.688,0.104-1.326,0.301-1.913c0.209-0.586,0.506-1.092,0.897-1.512
				c0.388-0.416,0.872-0.738,1.448-0.964c0.554-0.216,1.165-0.327,1.831-0.334v1.616h-0.005c-0.579,0-1.053,0.196-1.424,0.596
				C444.87,769.919,444.64,770.511,444.564,771.295z"/>
			<path style="fill-rule:evenodd;clip-rule:evenodd;fill:#85DAF8;" d="M459.44,772.001c0-0.614-0.089-1.139-0.278-1.579
				c-0.188-0.44-0.444-0.78-0.777-1.011c-0.33-0.238-0.698-0.352-1.101-0.352h-0.063v-1.668c0.202-0.035,0.413-0.052,0.632-0.052
				c0.715,0,1.371,0.185,1.975,0.552c0.603,0.371,1.077,0.908,1.427,1.617c0.346,0.707,0.521,1.545,0.521,2.521
				c0,0.712-0.102,1.367-0.301,1.968c-0.202,0.596-0.477,1.102-0.829,1.505c-0.353,0.403-0.766,0.721-1.244,0.938
				c-0.48,0.218-0.998,0.324-1.548,0.324c-0.223,0-0.433-0.015-0.632-0.045v-1.748h0.063c0.388,0,0.743-0.111,1.071-0.339
				c0.329-0.224,0.593-0.555,0.79-1.006C459.341,773.178,459.44,772.636,459.44,772.001z M457.221,769.059
				c-0.611,0.017-1.133,0.266-1.557,0.756c-0.441,0.504-0.663,1.247-0.663,2.23c0,0.922,0.22,1.639,0.659,2.154
				c0.419,0.498,0.94,0.755,1.561,0.772v1.748c-0.393-0.059-0.74-0.178-1.038-0.355c-0.453-0.265-0.882-0.652-1.291-1.173v3.488
				c0,1.022-0.374,1.531-1.111,1.531c-0.439,0-0.727-0.132-0.871-0.396c-0.142-0.262-0.21-0.649-0.21-1.153v-10.023
				c0-0.441,0.098-0.771,0.286-0.989c0.194-0.216,0.458-0.325,0.795-0.325c0.327,0,0.595,0.109,0.802,0.334
				c0.207,0.225,0.31,0.547,0.31,0.965v0.281c0.441-0.537,0.893-0.935,1.364-1.187c0.296-0.159,0.618-0.268,0.965-0.325V769.059z"/>
			<path style="fill-rule:evenodd;clip-rule:evenodd;fill:#85DAF8;" d="M465.962,768.637v6.717c0,0.465-0.113,0.815-0.333,1.055
				c-0.221,0.239-0.499,0.355-0.843,0.355c-0.34,0-0.613-0.119-0.829-0.364c-0.213-0.245-0.317-0.595-0.317-1.046v-6.644
				c0-0.458,0.104-0.809,0.317-1.036c0.216-0.235,0.489-0.351,0.829-0.351c0.344,0,0.622,0.115,0.843,0.351
				C465.849,767.9,465.962,768.225,465.962,768.637L465.962,768.637z M464.816,766.242c-0.327,0-0.608-0.104-0.834-0.299
				c-0.227-0.198-0.343-0.479-0.343-0.843c0-0.328,0.118-0.602,0.353-0.813c0.233-0.216,0.509-0.32,0.824-0.32
				c0.296,0,0.565,0.096,0.798,0.287c0.231,0.197,0.348,0.477,0.348,0.846c0,0.357-0.114,0.636-0.341,0.841
				C465.395,766.137,465.124,766.242,464.816,766.242z"/>
			<path style="fill-rule:evenodd;clip-rule:evenodd;fill:#85DAF8;" d="M474.147,775.699l-2.054-3.367l-1.261,1.193v1.846
				c0,0.447-0.112,0.791-0.346,1.035c-0.241,0.241-0.512,0.357-0.813,0.357c-0.36,0-0.642-0.116-0.845-0.355
				c-0.206-0.239-0.307-0.59-0.307-1.055v-9.903c0-0.518,0.094-0.911,0.294-1.179c0.203-0.271,0.485-0.404,0.857-0.404
				c0.355,0,0.637,0.117,0.849,0.364c0.208,0.246,0.31,0.604,0.31,1.082v5.634l2.615-2.744c0.325-0.338,0.569-0.57,0.736-0.696
				c0.174-0.124,0.381-0.185,0.623-0.185c0.292,0,0.53,0.088,0.728,0.275c0.188,0.186,0.288,0.414,0.288,0.693
				c0,0.34-0.315,0.796-0.946,1.363l-1.231,1.128l2.379,3.746c0.181,0.277,0.306,0.489,0.379,0.632
				c0.079,0.144,0.114,0.284,0.114,0.411c0,0.372-0.098,0.661-0.303,0.876c-0.2,0.21-0.469,0.316-0.792,0.316
				c-0.285,0-0.505-0.074-0.657-0.227C474.615,776.383,474.407,776.102,474.147,775.699z"/>
			<path style="fill-rule:evenodd;clip-rule:evenodd;fill:#85DAF8;" d="M479.889,776.764c-0.351,0-0.653-0.11-0.907-0.341
				c-0.256-0.225-0.389-0.542-0.389-0.955c0-0.342,0.125-0.642,0.367-0.892c0.247-0.248,0.55-0.371,0.904-0.371
				c0.357,0,0.659,0.123,0.914,0.367c0.251,0.247,0.378,0.545,0.378,0.896c0.001,0.407-0.127,0.726-0.378,0.954
				C480.523,776.653,480.229,776.764,479.889,776.764z"/>
			<path style="fill-rule:evenodd;clip-rule:evenodd;fill:#85DAF8;" d="M492.135,773.889c0,0.291-0.09,0.598-0.263,0.928
				c-0.173,0.331-0.436,0.642-0.788,0.942c-0.354,0.297-0.803,0.536-1.339,0.715c-0.541,0.184-1.15,0.273-1.824,0.273
				c-1.437,0-2.554-0.419-3.36-1.256c-0.804-0.833-1.21-1.956-1.21-3.36c0-0.959,0.186-1.8,0.556-2.532
				c0.365-0.729,0.902-1.296,1.602-1.692c0.695-0.402,1.529-0.601,2.498-0.601c0.6,0,1.15,0.085,1.654,0.261
				c0.505,0.178,0.927,0.4,1.277,0.685c0.348,0.274,0.614,0.571,0.801,0.886c0.185,0.316,0.274,0.609,0.274,0.881
				c0,0.281-0.103,0.517-0.313,0.708c-0.204,0.192-0.456,0.287-0.75,0.287c-0.194,0-0.357-0.05-0.483-0.148
				c-0.125-0.098-0.27-0.257-0.427-0.481c-0.285-0.429-0.58-0.755-0.89-0.97c-0.308-0.215-0.702-0.32-1.177-0.32
				c-0.687,0-1.239,0.266-1.659,0.803c-0.418,0.535-0.633,1.266-0.633,2.197c0,0.437,0.053,0.84,0.164,1.205
				c0.106,0.364,0.263,0.675,0.469,0.938c0.198,0.254,0.451,0.452,0.738,0.583c0.289,0.136,0.61,0.203,0.953,0.203
				c0.461,0,0.863-0.112,1.195-0.324c0.334-0.218,0.625-0.542,0.882-0.988c0.142-0.262,0.297-0.465,0.461-0.611
				c0.162-0.148,0.363-0.22,0.6-0.22c0.289,0,0.521,0.107,0.708,0.322C492.037,773.418,492.134,773.646,492.135,773.889z"/>
			<path style="fill-rule:evenodd;clip-rule:evenodd;fill:#85DAF8;" d="M500.523,772.045c0-0.949-0.213-1.685-0.629-2.213
				c-0.411-0.524-0.964-0.789-1.665-0.793v-1.717c0.702,0.002,1.332,0.117,1.901,0.336c0.571,0.228,1.063,0.549,1.471,0.973
				c0.411,0.422,0.72,0.92,0.93,1.499c0.216,0.579,0.32,1.216,0.32,1.915c0,0.689-0.104,1.327-0.321,1.909
				c-0.218,0.588-0.531,1.089-0.938,1.507c-0.408,0.42-0.893,0.744-1.461,0.972c-0.565,0.22-1.199,0.329-1.901,0.331v-1.728
				c0.701-0.005,1.254-0.268,1.665-0.795C500.31,773.71,500.523,772.977,500.523,772.045z M498.229,769.039h-0.017
				c-0.451,0-0.852,0.117-1.198,0.352c-0.342,0.238-0.611,0.585-0.802,1.041c-0.184,0.463-0.278,1.001-0.278,1.613
				c0,0.607,0.092,1.135,0.278,1.59c0.184,0.453,0.447,0.799,0.788,1.041c0.345,0.24,0.749,0.359,1.212,0.359h0.017v1.728h-0.017
				c-0.698,0-1.333-0.11-1.897-0.341c-0.559-0.225-1.044-0.548-1.46-0.972c-0.408-0.424-0.722-0.923-0.929-1.497
				c-0.217-0.576-0.324-1.214-0.324-1.909c0-0.705,0.107-1.348,0.329-1.935c0.211-0.582,0.522-1.083,0.92-1.497
				c0.404-0.412,0.893-0.732,1.464-0.957c0.576-0.225,1.206-0.334,1.897-0.334h0.017V769.039z"/>
			<path style="fill-rule:evenodd;clip-rule:evenodd;fill:#85DAF8;" d="M512.408,772.213v3.087c0,0.488-0.111,0.854-0.333,1.1
				c-0.219,0.245-0.513,0.364-0.878,0.364c-0.35,0-0.636-0.119-0.854-0.364c-0.219-0.245-0.329-0.611-0.329-1.1v-3.7
				c0-0.587-0.021-1.032-0.059-1.359c-0.04-0.326-0.147-0.59-0.324-0.796c-0.174-0.208-0.453-0.308-0.833-0.308
				c-0.759,0-1.259,0.258-1.498,0.777c-0.241,0.523-0.361,1.271-0.361,2.248v3.138c0,0.484-0.113,0.846-0.334,1.094
				c-0.213,0.247-0.503,0.37-0.86,0.37c-0.35,0-0.637-0.123-0.864-0.37c-0.225-0.248-0.336-0.609-0.336-1.094v-6.647
				c0-0.433,0.102-0.767,0.302-0.995c0.203-0.221,0.469-0.336,0.796-0.336c0.317,0,0.585,0.105,0.795,0.317
				c0.215,0.213,0.319,0.509,0.319,0.882v0.221c0.405-0.481,0.835-0.836,1.294-1.065c0.461-0.222,0.971-0.338,1.53-0.338
				c0.587,0,1.088,0.116,1.505,0.348c0.421,0.233,0.771,0.585,1.04,1.056c0.392-0.475,0.813-0.831,1.26-1.06
				c0.446-0.227,0.944-0.344,1.491-0.344c0.633,0,1.181,0.126,1.639,0.371c0.46,0.257,0.801,0.61,1.027,1.072
				c0.203,0.423,0.301,1.084,0.301,1.985v4.532c0,0.488-0.115,0.854-0.335,1.1c-0.216,0.245-0.507,0.364-0.874,0.364
				c-0.348,0-0.639-0.123-0.861-0.37c-0.227-0.248-0.337-0.609-0.337-1.094v-3.904c0-0.496-0.02-0.898-0.062-1.202
				c-0.047-0.297-0.158-0.552-0.347-0.753c-0.185-0.204-0.472-0.304-0.852-0.304c-0.307,0-0.594,0.09-0.87,0.27
				c-0.272,0.18-0.489,0.426-0.645,0.732C512.492,770.528,512.408,771.219,512.408,772.213z"/>
			<path style="fill-rule:evenodd;clip-rule:evenodd;fill:#85DAF8;" d="M400.779,761.334c-0.047-0.151-0.097-0.298-0.145-0.447
				c0.778-0.071,1.304-1.007,0.922-1.699c-0.185-0.415-0.611-0.637-1.04-0.646h-0.05c-0.361,0.006-0.717,0.164-0.926,0.485
				c-0.497,0.631-0.11,1.632,0.652,1.838c0.045,0.156,0.091,0.317,0.14,0.482c-1.17,0.075-2.363,0.338-3.345,1.006
				c0.101,0.277,0.203,0.565,0.302,0.853c1.98-0.869,4.2-0.682,6.288-0.473c0.068-0.275,0.138-0.553,0.209-0.827
				C402.843,761.48,401.807,761.324,400.779,761.334z"/>
			<path style="fill-rule:evenodd;clip-rule:evenodd;fill:#85DAF8;" d="M412.552,764.527c-0.312,0.161-0.373,0.538-0.353,0.853
				c-0.351,0.339-0.185,0.85-0.222,1.274c-0.079,0.237-0.364,0.266-0.563,0.353c-0.272-0.414-0.563-0.815-0.931-1.156l0.004-0.02
				c-0.4-0.374-0.83-0.715-1.287-1.012c-0.364,0.394-0.749,0.778-1.1,1.188c0.695,0.767,1.34,1.589,1.909,2.454
				c0.393,0.661,0.708,1.362,0.979,2.079c0.589-0.301,1.17-0.615,1.761-0.928c-0.312-0.715-0.664-1.418-1.044-2.107
				c0.262-0.14,0.61-0.274,0.651-0.615c0.03-0.377-0.055-0.784,0.171-1.113c0.455,0.298,1.147-0.036,1.153-0.591
				C413.742,764.615,413.022,764.205,412.552,764.527z"/>
			<path style="fill-rule:evenodd;clip-rule:evenodd;fill:#85DAF8;" d="M407.936,769.289c-0.14,0.957-1.05,1.767-2.026,1.707v3.836
				c1.794-0.482,3.526-1.19,5.129-2.131c0,0-0.338-1.866-1.668-3.902c-0.767-1.272-1.598-2.537-2.726-3.518
				c-0.233-0.206-0.479-0.399-0.735-0.578v2.218c0.246,0.005,0.492,0.051,0.729,0.108
				C407.535,767.346,408.121,768.357,407.936,769.289z M405.91,770.996h-0.008c-0.565,0.047-1.11-0.221-1.495-0.62
				c-0.275-0.343-0.504-0.737-0.541-1.187c-0.134-0.972,0.552-1.977,1.503-2.204c0.178-0.052,0.359-0.07,0.541-0.065v-2.218
				c-1.176-0.82-2.578-1.339-4.019-1.333c-1.776-0.021-3.57,0.204-5.262,0.751v2.107c0.313,0.001,0.626,0.044,0.928,0.129
				c0.342,0.087,0.656,0.245,0.949,0.442c0.604,0.427,1.059,1.059,1.26,1.773c0.282,0.918,0.102,1.945-0.432,2.738
				c-0.386,0.559-0.937,0.991-1.57,1.236c-0.362,0.135-0.749,0.201-1.135,0.2v2.845l0.09,0.005c2.077,0.063,4.17,0.115,6.232-0.177
				c0.997-0.131,1.986-0.326,2.959-0.588V770.996z M396.629,764.12v2.107c-0.535-0.002-1.069,0.121-1.541,0.377
				c-0.982,0.523-1.674,1.565-1.72,2.685c-0.065,0.897,0.291,1.787,0.89,2.448c0.599,0.661,1.485,1.01,2.372,1.01v2.845
				c-2.076-0.107-4.122-0.557-6.135-1.059c-0.368-1.865-0.378-3.883,0.439-5.635c0.848-1.95,2.522-3.46,4.45-4.309
				C395.792,764.412,396.207,764.256,396.629,764.12z"/>
			<path style="fill-rule:evenodd;clip-rule:evenodd;fill:#85DAF8;" d="M390.959,765.957c-0.83,0.502-1.511,1.207-2.08,1.984
				c-0.167-0.309-0.217-0.676-0.434-0.951c-0.124-0.166-0.345-0.099-0.518-0.102c-0.221,0.024-0.434-0.035-0.642-0.099
				c0.242-0.343,0.179-0.865-0.194-1.088c-0.396-0.286-1.011-0.038-1.116,0.435c-0.167,0.518,0.385,1.037,0.893,0.901
				c0.269,0.399,0.755,0.334,1.171,0.349c0.186,0.323,0.329,0.68,0.567,0.973c-0.445,0.877-0.696,1.857-0.715,2.843
				c0.571,0.237,1.14,0.482,1.715,0.72c0.028-0.623,0.099-1.238,0.194-1.846c0.192-1.334,0.963-2.493,1.877-3.448
				C391.45,766.39,391.197,766.183,390.959,765.957z"/>
			<path style="fill-rule:evenodd;clip-rule:evenodd;fill:#85DAF8;" d="M404.308,776.003c-2.104,0.46-4.275,0.595-6.427,0.501
				c-1.454-0.074-2.908-0.209-4.331-0.523c-1.006-0.205-1.993-0.496-2.984-0.78c0.159,1.265,0.67,2.477,1.401,3.521
				c0.862,1.212,2.014,2.325,3.45,2.773c1.05,0.282,2.291,0.64,4.336,0.648h0.207l0.212-0.002c1.903-0.033,3.773-0.275,5.442-0.985
				c1.076-0.462,2.086-1.095,2.954-1.884c0.748-0.706,1.336-1.586,1.741-2.531c0.392-0.893,0.744-2.5,0.706-3.321
				C408.956,774.591,406.653,775.61,404.308,776.003z"/>
		</g>
	</g>
	<g>
		<linearGradient id="SVGID_1_" gradientUnits="userSpaceOnUse" x1="619.1909" y1="691.3896" x2="619.1909" y2="400.791">
			<stop  offset="0" style="stop-color:#CCF1FF;stop-opacity:0.05"/>
			<stop  offset="1" style="stop-color:#85DAF8;stop-opacity:0.8"/>
		</linearGradient>
		<path style="fill-rule:evenodd;clip-rule:evenodd;fill:url(#SVGID_1_);" d="M705.915,400.791
			c-70.263,0-45.028,290.599-92.704,290.599c-47.676,0-27.721-290.599-80.744-290.599H705.915z"/>
		
			<linearGradient id="SVGID_00000120516895119952114780000011438528560964853399_" gradientUnits="userSpaceOnUse" x1="192.0798" y1="502.0459" x2="192.0798" y2="400.791">
			<stop  offset="0" style="stop-color:#439DD3;stop-opacity:0.05"/>
			<stop  offset="1" style="stop-color:#439DD3;stop-opacity:0.8"/>
		</linearGradient>
		<path style="fill-rule:evenodd;clip-rule:evenodd;fill:url(#SVGID_00000120516895119952114780000011438528560964853399_);" d="
			M128.399,400.791c30.152,0,30.619,101.255,66.1,101.255c35.482,0,39.512-101.255,61.262-101.255H128.399z"/>
		
			<linearGradient id="SVGID_00000070083570530816363990000011195774326945117346_" gradientUnits="userSpaceOnUse" x1="382.3149" y1="204.3623" x2="382.3149" y2="400.792">
			<stop  offset="0" style="stop-color:#439DD3;stop-opacity:0.05"/>
			<stop  offset="1" style="stop-color:#439DD3;stop-opacity:0.8"/>
		</linearGradient>
		<path style="fill-rule:evenodd;clip-rule:evenodd;fill:url(#SVGID_00000070083570530816363990000011195774326945117346_);" d="
			M508.869,400.792c-58.936,0-64.009-196.43-133.363-196.43c-69.354,0-77.231,196.43-119.745,196.43H508.869z"/>
		
			<linearGradient id="SVGID_00000081635963461958178140000009437813847698536620_" gradientUnits="userSpaceOnUse" x1="167.3699" y1="229.9072" x2="167.3699" y2="400.791">
			<stop  offset="0" style="stop-color:#CCF1FF;stop-opacity:0.05"/>
			<stop  offset="1" style="stop-color:#85DAF8;stop-opacity:0.8"/>
		</linearGradient>
		<path style="fill-rule:evenodd;clip-rule:evenodd;fill:url(#SVGID_00000081635963461958178140000009437813847698536620_);" d="
			M240.734,400.791c-60.167,0-41.279-170.884-82.105-170.884c-40.826,0-19.219,170.884-64.624,170.884H240.734z"/>
		
			<linearGradient id="SVGID_00000044161692891494738310000005109152335107105686_" gradientUnits="userSpaceOnUse" x1="295.2424" y1="575.4023" x2="295.2424" y2="400.791">
			<stop  offset="0" style="stop-color:#CCF1FF;stop-opacity:0.05"/>
			<stop  offset="1" style="stop-color:#85DAF8;stop-opacity:0.8"/>
		</linearGradient>
		<path style="fill-rule:evenodd;clip-rule:evenodd;fill:url(#SVGID_00000044161692891494738310000005109152335107105686_);" d="
			M349.71,400.791c-33.765,0-21.179,174.611-51.539,174.611c-30.36,0-12.653-174.611-57.396-174.611H349.71z"/>
		
			<linearGradient id="SVGID_00000051385813172082994490000013438463592073105794_" gradientUnits="userSpaceOnUse" x1="445.5617" y1="107.9492" x2="445.5617" y2="400.792">
			<stop  offset="0" style="stop-color:#CCF1FF;stop-opacity:0.05"/>
			<stop  offset="1" style="stop-color:#85DAF8;stop-opacity:0.8"/>
		</linearGradient>
		<path style="fill-rule:evenodd;clip-rule:evenodd;fill:url(#SVGID_00000051385813172082994490000013438463592073105794_);" d="
			M532.467,400.792c-70.409,0-52.69-292.843-100.464-292.843c-47.775,0-20.212,292.843-73.346,292.843H532.467z"/>
		
			<linearGradient id="SVGID_00000040563714262243155840000002614046943660858250_" gradientUnits="userSpaceOnUse" x1="400.1411" y1="500.2695" x2="400.1411" y2="400.791">
			<stop  offset="0" style="stop-color:#439DD3;stop-opacity:0.05"/>
			<stop  offset="1" style="stop-color:#439DD3;stop-opacity:0.8"/>
		</linearGradient>
		<path style="fill-rule:evenodd;clip-rule:evenodd;fill:url(#SVGID_00000040563714262243155840000002614046943660858250_);" d="
			M484.955,400.791c-28.924,0-34.282,99.479-81.467,99.479c-47.184,0-48.065-99.479-88.161-99.479H484.955z"/>
		
			<linearGradient id="SVGID_00000004529099033227394910000013533313850358974085_" gradientUnits="userSpaceOnUse" x1="230.9629" y1="346.2138" x2="230.9629" y2="400.791">
			<stop  offset="0" style="stop-color:#439DD3;stop-opacity:0.05"/>
			<stop  offset="1" style="stop-color:#439DD3;stop-opacity:0.8"/>
		</linearGradient>
		<path style="fill-rule:evenodd;clip-rule:evenodd;fill:url(#SVGID_00000004529099033227394910000013533313850358974085_);" d="
			M316.226,400.791c-40.096,0-41.877-54.577-89.06-54.577c-47.184,0-52.543,54.577-81.466,54.577H316.226z"/>
		
			<linearGradient id="SVGID_00000076572950512208635420000008557781070910576299_" gradientUnits="userSpaceOnUse" x1="569.7686" y1="240.9004" x2="569.7686" y2="400.792">
			<stop  offset="0" style="stop-color:#439DD3;stop-opacity:0.05"/>
			<stop  offset="1" style="stop-color:#439DD3;stop-opacity:0.8"/>
		</linearGradient>
		<path style="fill-rule:evenodd;clip-rule:evenodd;fill:url(#SVGID_00000076572950512208635420000008557781070910576299_);" d="
			M484.955,400.792c28.923,0,34.281-159.892,81.466-159.892c47.184,0,48.065,159.892,88.161,159.892H484.955z"/>
		
			<linearGradient id="SVGID_00000035502069868094136310000004126724718248518841_" gradientUnits="userSpaceOnUse" x1="233.6807" y1="340.3398" x2="310.0093" y2="340.3398">
			<stop  offset="0" style="stop-color:#CCF1FF;stop-opacity:0.05"/>
			<stop  offset="1" style="stop-color:#CCF1FF;stop-opacity:0.8"/>
		</linearGradient>
		<path style="fill-rule:evenodd;clip-rule:evenodd;fill:url(#SVGID_00000035502069868094136310000004126724718248518841_);" d="
			M310.009,400.792c-31.29,0-21.489-120.904-42.721-120.904c-21.232,0-9.995,120.904-33.608,120.904H310.009z"/>
		
			<linearGradient id="SVGID_00000084510591494405410540000014919398050633702582_" gradientUnits="userSpaceOnUse" x1="365.57" y1="478.789" x2="365.57" y2="400.791">
			<stop  offset="0" style="stop-color:#CCF1FF;stop-opacity:0.05"/>
			<stop  offset="1" style="stop-color:#CCF1FF;stop-opacity:0.8"/>
		</linearGradient>
		<path style="fill-rule:evenodd;clip-rule:evenodd;fill:url(#SVGID_00000084510591494405410540000014919398050633702582_);" d="
			M296.832,400.791c57.008,0,37.561,77.998,76.244,77.998s18.21-77.998,61.231-77.998H296.832z"/>
		
			<linearGradient id="SVGID_00000028293003699557438490000006427151425724149386_" gradientUnits="userSpaceOnUse" x1="502.0381" y1="172.3974" x2="502.0381" y2="400.792">
			<stop  offset="0" style="stop-color:#CCF1FF;stop-opacity:0.05"/>
			<stop  offset="1" style="stop-color:#CCF1FF;stop-opacity:0.8"/>
		</linearGradient>
		<path style="fill-rule:evenodd;clip-rule:evenodd;fill:url(#SVGID_00000028293003699557438490000006427151425724149386_);" d="
			M569.769,400.792c-55.531,0-38.137-228.395-75.817-228.395c-37.681,0-17.737,228.395-59.645,228.395H569.769z"/>
		
			<linearGradient id="SVGID_00000021799457560267180840000016601293271387930787_" gradientUnits="userSpaceOnUse" x1="637.4985" y1="629.1855" x2="637.4985" y2="400.791">
			<stop  offset="0" style="stop-color:#CCF1FF;stop-opacity:0.05"/>
			<stop  offset="1" style="stop-color:#CCF1FF;stop-opacity:0.8"/>
		</linearGradient>
		<path style="fill-rule:evenodd;clip-rule:evenodd;fill:url(#SVGID_00000021799457560267180840000016601293271387930787_);" d="
			M569.769,400.791c55.53,0,38.136,228.395,75.816,228.395c37.68,0,17.737-228.395,59.643-228.395H569.769z"/>
		
			<linearGradient id="SVGID_00000063616547610472149400000016586588419135314057_" gradientUnits="userSpaceOnUse" x1="239.1245" y1="433.7676" x2="239.1245" y2="400.791">
			<stop  offset="0" style="stop-color:#CCF1FF;stop-opacity:0.05"/>
			<stop  offset="1" style="stop-color:#CCF1FF;stop-opacity:0.8"/>
		</linearGradient>
		<path style="fill-rule:evenodd;clip-rule:evenodd;fill:url(#SVGID_00000063616547610472149400000016586588419135314057_);" d="
			M310.079,400.791c-58.982,0-36.218,32.977-76.24,32.977s-21.157-32.977-65.668-32.977H310.079z"/>
	</g>
</g>
</svg>
